<svg width="388" height="110" viewBox="0 0 388 110" fill="none" xmlns="http://www.w3.org/2000/svg">
<path d="M0 102H9.12V90.8398L8.52 63.9598L25.08 102H34.56L16.44 60.7198L34.56 17.9998H25.2L8.4 57.7198L9.12 28.0798V17.9998H0V102Z" fill="#292929"/>
<path d="M34.3528 59.9998C34.3528 84.1198 54.1528 103.68 78.5128 103.68C102.873 103.68 122.673 84.1198 122.673 59.9998C122.673 35.8798 102.873 16.3198 78.5128 16.3198C54.1528 16.3198 34.3528 35.8798 34.3528 59.9998ZM43.4728 59.9998C43.4728 40.6798 58.9528 24.9598 78.5128 24.9598C98.0728 24.9598 113.553 40.6798 113.553 59.9998C113.553 79.3198 98.0728 95.0398 78.5128 95.0398C58.9528 95.0398 43.4728 79.3198 43.4728 59.9998Z" fill="#292929"/>
<path d="M151.185 17.9998H137.145L128.025 102H136.905L138.945 84.4798L144.105 28.9198L149.385 84.5998L151.425 102H160.305L151.185 17.9998Z" fill="#292929"/>
<path d="M211.918 95.0398C200.158 95.0398 190.198 90.7198 183.838 83.7598L248.518 39.1198C240.958 25.5598 226.438 16.3198 209.758 16.3198C185.398 16.3198 165.598 35.8798 165.598 59.9998C165.598 84.1198 184.318 103.68 211.918 103.68C226.798 103.68 239.278 97.5598 247.918 85.0798L240.718 79.7998C234.478 89.3998 223.798 95.0398 211.918 95.0398ZM174.718 59.9998C174.718 40.6798 190.198 24.9598 209.758 24.9598C220.318 24.9598 229.798 29.6398 236.158 36.9598L178.798 76.4398C176.158 71.5198 174.718 65.9998 174.718 59.9998Z" fill="#292929"/>
<path d="M257.334 102H266.454V90.8398L265.854 63.9598L282.414 102H291.894L273.774 60.7198L291.894 17.9998H282.534L265.734 57.7198L266.454 28.0798V17.9998H257.334V102Z" fill="#292929"/>
<path d="M299.812 102H326.693V109.2H335.812V93.3598H330.533V17.9998H321.413V93.3598H308.932V17.9998H299.812V102Z" fill="#292929"/>
<path d="M344.288 102H353.408V17.9998H344.288V102Z" fill="#292929"/>
<path d="M367.838 102H376.958V17.9998H367.838V102Z" fill="#292929"/>
<rect x="357.441" width="10" height="10" fill="#292929"/>
<rect x="377.441" width="10" height="10" fill="#292929"/>
<rect x="61" y="12" width="35" height="35" rx="17.5" fill="#FD0502"/>
</svg>
