<svg width="414" height="419" viewBox="0 0 414 419" fill="none" xmlns="http://www.w3.org/2000/svg">
<path d="M159.828 10.0116L148.941 7.44788H94.8255V20.9073L70.4897 21.8687L49.9964 25.0734L63.7653 31.4826V35.6486L75.613 39.8147L70.4897 41.417H67.2876V47.1853H63.7653V51.0309L52.2378 41.417L45.5135 42.6988L42.3114 44.6216L47.4347 51.0309V67.0541H40.0699L39.1093 73.1429C37.615 74.6384 33.7938 77.7575 30.4637 78.2703C26.301 78.9112 19.5766 83.0772 18.2957 89.807L24.3797 97.8185C25.1269 100.169 25.5965 106.022 21.4978 110.637C17.3992 115.252 13.8128 116.192 12.532 116.085L10.931 131.788C12.4253 132.001 15.4139 133.134 15.4139 135.954C15.4139 139.479 9.32992 143.324 9.00971 143.645C8.6895 143.965 0.0438768 151.336 2.28533 156.463C4.0785 160.565 7.5154 164.582 9.00971 166.077C6.76825 170.136 2.28533 178.191 2.28533 177.934C2.28533 177.614 -2.51848 185.625 6.4477 186.587C13.6206 187.356 15.4139 181.139 15.4139 177.934L24.3797 184.344L29.1821 179.537L27.581 177.934C29.8222 173.768 33.9206 164.411 32.3842 160.309L54.4785 166.077H61.2029L71.7698 162.232H79.1346H85.8589V173.448L91.9429 186.587L109.234 204.533L128.126 214.467V216.71H131.649C131.435 218.313 131.905 221.646 135.491 222.158L144.777 233.375L136.772 243.309L142.216 248.116L140.615 257.089V260.293L145.738 260.614H152.462C152.676 257.73 154.576 252.987 160.467 257.089C166.359 261.191 164.203 263.284 162.389 263.819L166.551 266.703V278.88H170.074C168.793 280.483 166.615 284.136 168.152 285.931H175.197V282.405H180C180.214 283.58 181.217 285.931 183.522 285.931C185.828 285.931 182.135 289.349 180 291.058L177.118 292.66L183.522 298.429L189.927 294.583L196.651 299.39L207.538 303.236V320.861L211.701 322.143L203.696 333.359H217.465V340.73L215.223 345.216L222.908 351.305V345.216H229.953V354.189C231.874 356.112 235.46 361.432 234.436 367.328H239.239C242.548 369.785 249.357 383.159 250.126 417L285.669 402.259L282.147 393.606L287.27 388.799L282.147 383.672L278.304 380.467C278.304 378.758 277.151 373.737 272.54 367.328C272.967 365.299 272.797 361.111 268.698 360.598L266.136 355.471L265.496 350.344H261.653V342.973H289.191L290.472 347.78L294.315 358.355H295.916V351.305C298.797 351.732 304.689 351.625 305.202 347.78C305.714 343.934 300.505 340.196 297.837 338.807C294.848 337.098 288.807 332.718 288.551 328.873C288.231 324.066 283.427 312.849 278.624 309.004C274.782 305.927 272.54 296.613 271.9 292.34L265.176 282.405C266.456 281.337 267.929 277.598 263.575 271.189L273.821 268.625C274.462 272.151 276.639 279.201 280.225 279.201V255.807C282.894 255.38 289.768 253.82 295.916 251C302.064 248.18 308.297 245.125 310.645 243.95C308.19 247.154 303.344 254.269 303.601 257.089L306.803 255.807L309.044 261.575L306.803 263.819C309.685 263.925 316.153 264.588 318.971 266.382C321.788 268.177 322.92 270.335 323.133 271.189C328.15 270.014 337.222 265.293 333.38 255.807L331.138 251V246.834H335.942L333.38 240.745L341.385 233.054L345.228 236.9V240.745L356.115 243.95L360.918 239.463H369.563V233.054C372.659 233.375 379.17 233.118 380.451 229.529C381.731 225.94 379.063 224.615 377.569 224.402V217.672L389.416 214.788L399.023 221.838C402.652 222.051 410.038 221.133 410.55 215.749C411.062 210.365 410.764 209.66 410.55 209.981C411.831 209.447 414.008 207.737 412.471 205.174C410.934 202.61 407.348 202.396 405.747 202.61H400.624L391.978 194.598L397.101 186.266L389.416 176.012H386.535L377.569 169.282V163.193L369.563 160.629L356.115 148.772L364.12 143.965V135.633H357.716L360.277 130.185L357.716 127.942V120.892H366.682L364.12 114.483H360.277L359.317 110.637L354.514 111.919L352.913 105.51L357.716 100.062H360.277V95.5753L369.243 93.332L364.12 84.3591L362.519 82.1158L374.367 77.6293L411.191 62.5676L407.988 39.8147L404.786 36.61V30.8417L397.101 26.6757H393.579L387.175 18.3436L384.613 15.139L374.687 18.9846L372.125 10.332H360.598L340.104 2L337.543 3.60232L340.104 9.05019L331.138 22.1892H333.7L335.621 42.0579H323.774V34.3668C317.903 37.9987 305.266 45.1985 301.679 44.9421C300.292 50.1763 296.62 61.478 293.034 64.8108C273.714 64.2767 233.155 62.3112 225.47 58.722L221.947 64.8108C222.054 66.52 223.164 70.0023 226.751 70.2587L233.155 79.2317C233.155 81.9022 232.386 86.9228 229.312 85.6409C226.238 84.3591 224.829 79.9794 224.509 77.9498H214.583C216.717 75.2793 219.514 68.6564 213.622 63.529C207.73 58.4015 193.662 49.8559 187.365 46.2239C185.124 44.6216 180.769 38.8533 181.281 28.5985L173.916 27.3166V23.1506H159.828V10.0116Z" stroke="black" stroke-width="2"/>
<g clip-path="url(#clip0_4_1097)">
<path d="M207.759 162.24C207.759 163.818 202.414 165.093 195.829 165.093C189.243 165.093 183.898 163.818 183.898 162.24C183.898 160.829 188.181 159.669 193.796 159.43H197.861C203.482 159.669 207.759 160.829 207.759 162.24Z" fill="#171717"/>
<path d="M195.833 130.442C189.695 130.442 184.719 135.407 184.719 141.538C184.719 147.669 195.833 162.312 195.833 162.312C195.833 162.312 206.942 147.669 206.942 141.538C206.942 135.407 201.972 130.442 195.833 130.442ZM195.83 141.225C191.767 141.225 195.559 145.283 195.559 141.225C195.559 137.166 191.767 141.225 195.83 141.225C199.894 141.225 196.101 148.006 195.83 141.225C199.354 142.581 195.83 145.283 195.83 141.225Z" fill="#FD0502"/>
<path d="M191.116 139.597H192.221L192.391 144.48H190.969L191.116 139.597ZM190.193 144.751H200.921V145.293H201.768V146.107H202.332V146.649H188.781V146.107H189.346V145.293H190.193V144.751ZM201.485 138.19L195.557 135.8L189.628 138.19V138.512H201.485V138.19ZM190.757 138.784H200.356V139.326H190.757V138.784ZM198.87 139.597H199.975L200.146 144.48H198.722L198.87 139.597ZM196.286 139.597H197.391L197.561 144.48H196.137L196.286 139.597ZM193.702 139.597H194.807L194.975 144.48H193.553L193.702 139.597Z" fill="white"/>
</g>
<defs>
<clipPath id="clip0_4_1097">
<rect width="34.6903" height="34.7179" fill="white" transform="translate(178.484 130.375)"/>
</clipPath>
</defs>
</svg>
