<svg width="35" height="35" viewBox="0 0 35 35" fill="none" xmlns="http://www.w3.org/2000/svg">
<path d="M21.9366 20.7574C23.2534 19.1633 24.0851 17.1188 24.0851 14.8663C24.0851 9.80687 19.9613 5.68311 14.9019 5.68311C9.84251 5.68311 5.71875 9.80687 5.71875 14.8663C5.71875 19.9257 9.84251 24.0494 14.9019 24.0494C17.1197 24.0494 19.1989 23.2524 20.793 21.9009L27.9316 29.0395C28.1049 29.2128 28.3128 29.2821 28.5207 29.2821C28.7287 29.2821 28.9366 29.2128 29.1098 29.0395C29.4217 28.7277 29.4217 28.1732 29.1098 27.8613L21.9366 20.7574ZM14.8673 22.3861C10.7088 22.3861 7.34746 19.0247 7.34746 14.8663C7.34746 10.7079 10.7088 7.34647 14.8673 7.34647C19.0257 7.34647 22.3871 10.7079 22.3871 14.8663C22.3871 19.0247 19.0257 22.3861 14.8673 22.3861Z" fill="#FD0502" fill-opacity="0.7"/>
</svg>
