<svg width="737" height="417" viewBox="0 0 737 417" fill="none" xmlns="http://www.w3.org/2000/svg">
<g filter="url(#filter0_d_331_2)">
<path fill-rule="evenodd" clip-rule="evenodd" d="M24.4816 405C15.3791 405 8 397.621 8 388.518L8 20.4817C8 11.3791 15.3791 4 24.4817 4H441.886C441.878 4.15579 441.874 4.31232 441.874 4.46948C441.874 11.4713 449.565 17.1475 459.051 17.1475C468.538 17.1475 476.228 11.4713 476.228 4.46948C476.228 4.31232 476.224 4.15579 476.216 4H712.944C722.046 4 729.425 11.3791 729.425 20.4817V388.518C729.425 397.621 722.046 405 712.944 405H476.216C475.881 398.216 468.324 392.792 459.051 392.792C449.778 392.792 442.221 398.216 441.886 405H24.4816Z" fill="#FFFCF1"/>
</g>
<defs>
<filter id="filter0_d_331_2" x="0.789276" y="0.909689" width="735.847" height="415.421" filterUnits="userSpaceOnUse" color-interpolation-filters="sRGB">
<feFlood flood-opacity="0" result="BackgroundImageFix"/>
<feColorMatrix in="SourceAlpha" type="matrix" values="0 0 0 0 0 0 0 0 0 0 0 0 0 0 0 0 0 0 127 0" result="hardAlpha"/>
<feOffset dy="4.12041"/>
<feGaussianBlur stdDeviation="3.60536"/>
<feComposite in2="hardAlpha" operator="out"/>
<feColorMatrix type="matrix" values="0 0 0 0 0 0 0 0 0 0 0 0 0 0 0 0 0 0 0.25 0"/>
<feBlend mode="normal" in2="BackgroundImageFix" result="effect1_dropShadow_331_2"/>
<feBlend mode="normal" in="SourceGraphic" in2="effect1_dropShadow_331_2" result="shape"/>
</filter>
</defs>
</svg>
