<svg width="96" height="27" viewBox="0 0 96 27" fill="none" xmlns="http://www.w3.org/2000/svg">
<path d="M0 25.2198H2.25495V22.4604L2.10659 15.8143L6.2011 25.2198H8.54506L4.06484 15.0132L8.54506 4.45054H6.23077L2.07692 14.2714L2.25495 6.94285V4.45054H0V25.2198Z" fill="#292929"/>
<path d="M8.49383 14.8352C8.49383 20.7989 13.3894 25.6352 19.4125 25.6352C25.4356 25.6352 30.3312 20.7989 30.3312 14.8352C30.3312 8.87143 25.4356 4.03516 19.4125 4.03516C13.3894 4.03516 8.49383 8.87143 8.49383 14.8352ZM10.7488 14.8352C10.7488 10.0582 14.5763 6.17142 19.4125 6.17142C24.2488 6.17142 28.0763 10.0582 28.0763 14.8352C28.0763 19.6121 24.2488 23.4989 19.4125 23.4989C14.5763 23.4989 10.7488 19.6121 10.7488 14.8352Z" fill="#292929"/>
<path d="M37.3809 4.45054H33.9095L31.6545 25.2198H33.8502L34.3545 20.8879L35.6304 7.15054L36.9359 20.9176L37.4403 25.2198H39.6359L37.3809 4.45054Z" fill="#292929"/>
<path d="M52.3974 23.4989C49.4897 23.4989 47.027 22.4308 45.4545 20.7099L61.4468 9.67252C59.5776 6.31977 55.9875 4.03516 51.8633 4.03516C45.8402 4.03516 40.9446 8.87143 40.9446 14.8352C40.9446 20.7989 45.5732 25.6352 52.3974 25.6352C56.0765 25.6352 59.1622 24.122 61.2985 21.0363L59.5182 19.7308C57.9754 22.1044 55.3347 23.4989 52.3974 23.4989ZM43.1996 14.8352C43.1996 10.0582 47.027 6.17142 51.8633 6.17142C54.4743 6.17142 56.8182 7.32856 58.3908 9.13845L44.2083 18.9C43.5556 17.6835 43.1996 16.3187 43.1996 14.8352Z" fill="#292929"/>
<path d="M63.6267 25.2198H65.8816V22.4604L65.7333 15.8143L69.8278 25.2198H72.1717L67.6915 15.0132L72.1717 4.45054H69.8574L65.7036 14.2714L65.8816 6.94285V4.45054H63.6267V25.2198Z" fill="#292929"/>
<path d="M74.1295 25.2198H80.7757V27H83.0306V23.0835H81.7251V4.45054H79.4702V23.0835H76.3844V4.45054H74.1295V25.2198Z" fill="#292929"/>
<path d="M85.1263 25.2198H87.3812V4.45054H85.1263V25.2198Z" fill="#292929"/>
<path d="M90.9491 25.2198H93.204V4.45054H90.9491V25.2198Z" fill="#292929"/>
<rect x="88.3789" width="2.47253" height="2.47253" fill="#292929"/>
<rect x="93.3242" width="2.47253" height="2.47253" fill="#292929"/>
<rect x="11" y="3" width="6" height="6" rx="3" fill="#FD0502"/>
</svg>
